<?xml version="1.0" encoding="UTF-8"?>
<!-- Uploaded to: SVG Find, www.svgrepo.com, Generator: SVG Find Mixer Tools -->
<svg
  fill="currentColor"
  width="800px"
  height="800px"
  version="1.1"
  viewBox="144 144 512 512"
  xmlns="http://www.w3.org/2000/svg"
>
  <path
    d="m588.93 289.79h-78.719v-78.719c0-12.527-4.9766-24.539-13.836-33.398-8.8555-8.8594-20.871-13.836-33.395-13.836h-251.91c-12.527 0-24.539 4.9766-33.398 13.836s-13.836 20.871-13.836 33.398v251.91c0 12.523 4.9766 24.539 13.836 33.395 8.8594 8.8594 20.871 13.836 33.398 13.836h78.719v78.719c0 12.527 4.9766 24.543 13.836 33.398 8.8555 8.8594 20.871 13.836 33.398 13.836h251.9c12.527 0 24.543-4.9766 33.398-13.836 8.8594-8.8555 13.836-20.871 13.836-33.398v-251.9c0-12.527-4.9766-24.543-13.836-33.398-8.8555-8.8594-20.871-13.836-33.398-13.836zm-393.6 173.19v-251.91c0-4.1758 1.6602-8.1797 4.6133-11.133s6.957-4.6133 11.133-4.6133h251.91c4.1719 0 8.1797 1.6602 11.133 4.6133 2.9492 2.9531 4.6094 6.957 4.6094 11.133v251.91c0 4.1719-1.6602 8.1797-4.6094 11.133-2.9531 2.9492-6.9609 4.6094-11.133 4.6094h-251.91c-4.1758 0-8.1797-1.6602-11.133-4.6094-2.9531-2.9531-4.6133-6.9609-4.6133-11.133zm409.34 125.95 0.003906-0.003907c0 4.1758-1.6602 8.1797-4.6133 11.133s-6.957 4.6133-11.133 4.6133h-251.9c-4.1758 0-8.1797-1.6602-11.133-4.6133s-4.6133-6.957-4.6133-11.133v-78.719h141.7c12.523 0 24.539-4.9766 33.395-13.836 8.8594-8.8555 13.836-20.871 13.836-33.395v-141.7h78.719c4.1758 0 8.1797 1.6602 11.133 4.6133s4.6133 6.957 4.6133 11.133z"
  />
</svg>
