<svg
  fill="rgb(59,130,246)"
  version="1.1"
  viewBox="144 144 512 512"
  xmlns="http://www.w3.org/2000/svg"
>
  <g id="SVGRepo_bgCarrier" stroke-width="0"></g>
  <g
    id="SVGRepo_tracerCarrier"
    stroke-linecap="round"
    stroke-linejoin="round"
  ></g>
  <g id="SVGRepo_iconCarrier">
    <path
      d="m638.2 382.16c-2.8711 7.6094-10.078 12.746-18.238 12.949l-83.531 2.5195-100.96 107.16 2.4688 83.48c0.25 8.1602-4.4336 15.668-11.84 18.992-2.668 1.2109-5.4922 1.7617-8.2617 1.7617-5.0391 0-10.027-1.8633-13.855-5.4922l-92.246-86.957-116.43 123.54c-3.9805 4.2305-9.3203 6.3477-14.66 6.3477-4.9883 0-9.9258-1.8125-13.855-5.4922-8.0625-7.6055-8.4648-20.355-0.80469-28.465l116.43-123.54-92.297-86.953c-5.9453-5.5938-7.9102-14.207-5.0391-21.816 2.9219-7.6562 10.078-12.746 18.238-13l85.094-2.5195 99.453-105.55-2.5195-85.094c-0.25-8.1602 4.4336-15.668 11.891-18.992 7.4062-3.3242 16.121-1.8633 22.066 3.7266l213.92 201.52c5.8945 5.5938 7.9102 14.207 4.9883 21.867z"
    ></path>
  </g>
</svg>
