<?xml version="1.0" encoding="UTF-8"?>
<!-- Uploaded to: SVG Find, www.svgrepo.com, Generator: SVG Find Mixer Tools -->
<svg
  fill="currentColor"
  width="800px"
  height="800px"
  version="1.1"
  viewBox="144 144 512 512"
  xmlns="http://www.w3.org/2000/svg"
>
  <path
    d="m622.63 238.78c0-0.35156 0.35156-0.70703 0.50391-1.1094 0.15234-0.40234 0.25-0.60547 0.35156-0.90625 0.14062-0.41406 0.25781-0.83594 0.35156-1.2617v-0.85547c0.027344-0.45313 0.027344-0.90625 0-1.3594v-0.80469-0.003906c0.050781-0.63672 0.050781-1.2773 0-1.9141v-0.30078c-0.15234-0.74219-0.37109-1.4648-0.65234-2.168v-0.45312c-0.22266-0.50391-0.47266-0.99219-0.75781-1.4609l-0.75391-0.75391c0-0.25-0.35156-0.55469-0.60547-0.80469l-0.80469-0.96094-0.85547-0.80469-0.80469-0.55469-1.0586-0.65625-0.91016-0.35156-1.1602-0.45312h-7.1562l-423.2 111.19h0.003906c-5.043 1.3242-8.75 5.6211-9.3203 10.805-0.57031 5.1836 2.1133 10.184 6.75 12.57l108.27 55.418 52.598 160.46c1.457 4.4414 5.25 7.707 9.8594 8.4883 4.6055 0.78125 9.2656-1.0508 12.105-4.7578l256.29-334.58 0.45312-0.70703zm-107.92 32.492-46.551 25.191-167.06 91.293-77.688-39.902zm-155.02 269.29-43.18-132.5 84.289-45.949 164.64-89.828z"
  />
</svg>
